<?xml version="1.0" encoding="iso-8859-1"?>
<!-- Uploaded to: SVG Repo, www.svgrepo.com, Generator: SVG Repo Mixer Tools -->
<svg height="800px" width="800px" version="1.1" id="Layer_1" xmlns="http://www.w3.org/2000/svg" xmlns:xlink="http://www.w3.org/1999/xlink" 
	 viewBox="0 0 511.999 511.999" xml:space="preserve">
<path style="fill:#FFA561;" d="M95.584,464.308c-46.29-43.031-75.248-104.453-75.248-172.64
	c0-130.154,105.51-235.664,235.664-235.664s235.664,105.51,235.664,235.664c0,69.859-30.396,132.618-78.685,175.773L95.584,464.308z
	"/>
<polygon style="fill:#695352;" points="359.266,131.9 284.473,131.9 284.473,25.413 227.527,25.413 227.527,131.9 152.734,131.9 
	152.734,188.845 227.527,188.845 227.527,428.542 284.473,428.542 284.473,188.845 359.266,188.845 "/>
<g>
	<polygon style="fill:#4F3E3E;" points="153.93,278.657 103.805,278.657 103.805,218.689 60.722,218.689 60.722,278.657 
		10.596,278.657 10.596,321.739 60.722,321.739 60.722,450.777 103.805,450.777 103.805,321.739 153.93,321.739 	"/>
	<polygon style="fill:#4F3E3E;" points="358.069,278.657 408.195,278.657 408.195,218.689 451.277,218.689 451.277,278.657 
		501.404,278.657 501.404,321.739 451.277,321.739 451.277,450.777 408.195,450.777 408.195,321.739 358.069,321.739 	"/>
</g>
<path style="fill:#94D77F;" d="M0,486.586c35.805-57.621,136.891-99.149,255.999-99.149s220.196,41.529,255.999,99.148L0,486.586z"
	/>
<path style="opacity:0.1;enable-background:new    ;" d="M86.338,486.586c31.388-50.512,112.945-88.655,212.83-97.297
	c-14.057-1.216-28.476-1.851-43.169-1.851c-119.109,0-220.195,41.528-255.999,99.148L86.338,486.586L86.338,486.586z"/>
</svg>